<?xml version="1.0" standalone="no"?>
<!DOCTYPE svg PUBLIC "-//W3C//DTD SVG 20010904//EN"
 "http://www.w3.org/TR/2001/REC-SVG-20010904/DTD/svg10.dtd">
<svg version="1.0" xmlns="http://www.w3.org/2000/svg"
 width="1024.000000pt" height="1024.000000pt" viewBox="0 0 1024.000000 1024.000000"
 preserveAspectRatio="xMidYMid meet">
<metadata>
Created by potrace 1.11, written by Peter Selinger 2001-2013
</metadata>
<g transform="translate(0.000000,1024.000000) scale(0.100000,-0.100000)"
fill="#000000" stroke="none">
<path d="M9098 9363 c-8 -10 -22 -29 -31 -43 -9 -14 -56 -80 -104 -146 -49
-67 -126 -175 -173 -240 -74 -104 -133 -187 -158 -219 -4 -5 -41 -57 -81 -115
-72 -101 -158 -221 -219 -305 -16 -22 -179 -249 -363 -505 -183 -256 -484
-675 -668 -933 -185 -257 -340 -475 -346 -484 -5 -9 -18 -26 -27 -37 -9 -12
-100 -138 -202 -281 -102 -143 -188 -264 -193 -270 -5 -5 -26 -35 -47 -65 -32
-44 -496 -692 -810 -1130 -34 -46 -68 -94 -76 -106 -20 -29 -182 -256 -193
-269 -11 -14 -158 -219 -246 -342 -40 -57 -77 -105 -81 -108 -7 -5 -94 112
-265 360 -27 39 -53 75 -58 80 -7 9 -88 124 -208 295 -25 36 -254 360 -509
720 -254 360 -483 684 -508 720 -26 36 -134 189 -241 340 -107 151 -215 304
-240 340 -64 92 -198 281 -215 305 -14 19 -353 499 -554 785 -53 74 -114 161
-136 192 -23 32 -106 150 -186 264 -80 113 -163 232 -186 263 -22 31 -96 135
-164 231 -111 157 -200 284 -429 608 -39 56 -76 102 -80 102 -5 0 -9 -1854 -9
-4120 l0 -4120 619 0 619 0 0 2207 c0 2085 1 2206 17 2183 9 -14 22 -30 28
-37 8 -9 167 -232 385 -537 25 -35 104 -146 177 -247 73 -101 211 -294 308
-429 97 -135 183 -254 191 -265 8 -11 47 -65 86 -120 39 -55 174 -242 298
-415 125 -173 332 -461 460 -640 128 -179 303 -422 388 -540 86 -118 176 -244
201 -280 25 -36 49 -69 54 -75 4 -5 30 -41 57 -80 27 -38 56 -73 65 -77 17
-10 -9 -43 308 407 124 176 249 353 279 394 29 41 74 104 99 140 42 61 246
351 327 466 20 28 93 131 162 230 146 206 684 970 706 1000 8 11 92 130 187
265 94 135 180 256 190 270 10 14 67 95 127 180 60 85 126 180 148 210 21 30
92 131 158 223 l119 169 3 -2301 2 -2301 635 0 635 0 0 4125 c0 2269 -4 4125
-8 4125 -5 0 -16 -8 -24 -17z"/>
</g>
</svg>
